<svg width="60" height="37" viewBox="0 0 60 37" fill="none" xmlns="http://www.w3.org/2000/svg">
<path d="M54.6344 0.0705153H5.36558C5.16311 0.0705153 4.96063 0.0705153 4.75815 0.0705153C4.58943 0.0705153 4.4207 0.0705153 4.23509 0.0705153C3.86389 0.0863434 3.47581 0.102171 3.10461 0.165484C2.73341 0.228796 2.3622 0.339592 2.02475 0.497873C1.34983 0.814435 0.793025 1.33676 0.455568 1.96988C0.286839 2.28645 0.168729 2.61884 0.101237 2.98288C0.0337455 3.3311 0.0168729 3.69515 0 4.04336C0 4.20164 0 4.35992 0 4.53403C0 4.72397 0 4.91391 0 5.10385V31.0619C0 31.2518 0 31.4418 0 31.6475C0 31.8058 0 31.9641 0 32.1382C0.0168729 32.4864 0.0337455 32.8505 0.101237 33.1987C0.168729 33.5469 0.286839 33.8951 0.455568 34.2117C0.624296 34.5282 0.843643 34.8132 1.11361 35.0664C1.38358 35.3196 1.68729 35.5254 2.02475 35.6837C2.3622 35.842 2.71653 35.9528 3.10461 36.0161C3.47581 36.0794 3.86389 36.0952 4.23509 36.1111C4.40382 36.1111 4.57255 36.1111 4.75815 36.1111C4.96063 36.1111 5.16311 36.1111 5.36558 36.1111H54.6344C54.8369 36.1111 55.0394 36.1111 55.2419 36.1111C55.4106 36.1111 55.5793 36.1111 55.7649 36.1111C56.1361 36.0952 56.5242 36.0794 56.8954 36.0161C57.2666 35.9528 57.6378 35.842 57.9753 35.6837C58.6502 35.3513 59.207 34.8448 59.5444 34.2117C59.7132 33.8951 59.8313 33.5627 59.8988 33.1987C59.9663 32.8505 59.9831 32.4864 60 32.1382C60 31.9799 60 31.8216 60 31.6475C60 31.4576 60 31.2677 60 31.0619V5.10385C60 4.91391 60 4.72397 60 4.51821C60 4.35993 60 4.20164 60 4.02754C59.9831 3.67932 59.9663 3.31527 59.8988 2.96705C59.8313 2.61884 59.7132 2.27062 59.5444 1.95406C59.207 1.32093 58.6502 0.798607 57.9753 0.482045C57.6378 0.323764 57.2835 0.212968 56.8954 0.149656C56.5242 0.0863434 56.1361 0.0705156 55.7649 0.0546875C55.5962 0.0546875 55.4275 0.0546875 55.2419 0.0546875C55.0394 0.0705156 54.8369 0.0705153 54.6344 0.0705153Z" fill="#010202"/>
<path d="M54.8608 1.00293H55.474C55.6443 1.00293 55.7977 1.00293 55.968 1.00293C56.2576 1.00293 56.5982 1.01901 56.9219 1.08334C57.1944 1.13159 57.4329 1.19592 57.6543 1.30849C58.0972 1.51756 58.4549 1.85529 58.6764 2.27343C58.7956 2.4825 58.8637 2.69157 58.9148 2.96496C58.9659 3.25444 58.983 3.57609 59 3.84949C59 4.01031 59 4.15505 59 4.31587C59 4.50886 59 4.70184 59 4.89483V31.2697C59 31.4627 59 31.6557 59 31.8487C59 32.0095 59 32.1542 59 32.315C59 32.5884 58.983 32.9101 58.9148 33.2156C58.8808 33.4569 58.7956 33.682 58.6764 33.8911C58.4549 34.3092 58.0972 34.647 57.6543 34.856C57.4329 34.9686 57.2115 35.0329 56.9389 35.0812C56.6153 35.1294 56.2576 35.1455 56.0021 35.1616C55.8317 35.1616 55.6614 35.1616 55.491 35.1616C55.2866 35.1616 55.0822 35.1616 54.8778 35.1616H5.13921C4.9348 35.1616 4.7304 35.1616 4.52599 35.1616C4.35566 35.1616 4.20235 35.1616 4.03201 35.1616C3.75947 35.1616 3.40176 35.1455 3.07812 35.0812C2.82262 35.049 2.58414 34.9686 2.34567 34.856C2.12423 34.7435 1.91983 34.6148 1.74949 34.454C1.57915 34.2932 1.42585 34.1002 1.32364 33.8911C1.20441 33.682 1.13627 33.4408 1.08517 33.1996C1.03407 32.894 1.01703 32.5884 1 32.315C1 32.1542 1 32.0095 1 31.8487V31.3823V4.78226V4.33195C1 4.17113 1 4.02639 1 3.86557C1 3.59217 1.01703 3.27053 1.08517 2.96496C1.11924 2.72373 1.20441 2.49858 1.32364 2.27343C1.44288 2.06436 1.57915 1.87137 1.74949 1.71055C1.91983 1.54973 2.12423 1.40499 2.34567 1.30849C2.56711 1.19592 2.82262 1.13159 3.07812 1.08334C3.40176 1.03509 3.74244 1.01901 4.03201 1.00293C4.20235 1.00293 4.35566 1.00293 4.52599 1.00293H5.13921H54.8608Z" fill="white"/>
<path d="M15.896 12.1376C16.4008 11.5309 16.7542 10.7326 16.6532 9.90234C15.9128 9.93428 15.0042 10.3654 14.4825 10.9721C14.0114 11.483 13.5907 12.3292 13.7085 13.1275C14.533 13.1914 15.3744 12.7284 15.896 12.1376Z" fill="#010202"/>
<path d="M16.6362 13.2716C15.4247 13.2077 14.3983 13.9262 13.8261 13.9262C13.254 13.9262 12.3622 13.3035 11.4031 13.3195C10.1579 13.3355 8.99681 14.006 8.37422 15.0758C7.07854 17.1993 8.03768 20.3606 9.2997 22.085C9.92229 22.9471 10.6627 23.8892 11.6218 23.8572C12.5473 23.8253 12.9007 23.2984 14.0281 23.2984C15.1555 23.2984 15.4752 23.8572 16.4511 23.8413C17.4608 23.8253 18.1002 22.9791 18.7059 22.1329C19.4127 21.1589 19.6987 20.2169 19.7156 20.1531C19.6987 20.1371 17.7636 19.4346 17.7468 17.327C17.73 15.5548 19.2612 14.7245 19.3454 14.6607C18.4704 13.4472 17.1074 13.3035 16.6362 13.2716Z" fill="#010202"/>
<path d="M28.7185 10.875C31.3435 10.875 33.1776 12.5994 33.1776 15.1061C33.1776 17.6287 31.3098 19.3531 28.6511 19.3531H25.7401V23.7438H23.6367V10.875H28.7185ZM25.7401 17.6766H28.1632C29.9973 17.6766 31.0406 16.7346 31.0406 15.122C31.0406 13.4935 29.9973 12.5674 28.18 12.5674H25.7569C25.7401 12.5674 25.7401 17.6766 25.7401 17.6766Z" fill="#010202"/>
<path d="M33.6992 21.0773C33.6992 19.4328 35.0285 18.4748 37.4684 18.3471L40.0934 18.2034V17.4849C40.0934 16.4471 39.3699 15.8723 38.0742 15.8723C37.0141 15.8723 36.2401 16.3832 36.0886 17.1815H34.1872C34.2377 15.5211 35.9035 14.3076 38.1415 14.3076C40.5478 14.3076 42.1127 15.5051 42.1127 17.3572V23.7596H40.1608V22.2109H40.1103C39.555 23.2168 38.3266 23.8554 37.0141 23.8554C35.0622 23.8395 33.6992 22.7378 33.6992 21.0773ZM40.0934 20.2471V19.5286L37.7545 19.6723C36.442 19.7521 35.7521 20.2151 35.7521 21.0294C35.7521 21.8118 36.4588 22.3227 37.5862 22.3227C39.0165 22.3227 40.0934 21.4605 40.0934 20.2471Z" fill="#010202"/>
<path d="M43.8969 27.1923V25.6436C44.0315 25.6595 44.3512 25.6755 44.5195 25.6755C45.4449 25.6755 45.9834 25.3083 46.3031 24.3343L46.4882 23.7595L42.9209 14.4033H45.1252L47.5988 22.0033H47.6493L50.1228 14.4033H52.2767L48.5747 24.2385C47.7334 26.4898 46.7574 27.2402 44.7046 27.2402C44.5531 27.2402 44.0483 27.2242 43.8969 27.1923Z" fill="#010202"/>
</svg>
