<svg width="59" height="25" viewBox="0 0 59 25" fill="none" xmlns="http://www.w3.org/2000/svg">
<path fill-rule="evenodd" clip-rule="evenodd" d="M27.2111 19.2007V12.2392H30.8907C32.3985 12.2392 33.6712 11.7459 34.7087 10.773L34.9577 10.5263C36.8528 8.51187 36.7283 5.37375 34.7087 3.51006C33.6989 2.5234 32.3155 1.98896 30.8907 2.01637H24.9839V19.2007H27.2111ZM27.2114 10.1287V4.12657H30.9469C31.7494 4.12657 32.5103 4.42805 33.0776 4.97619C34.2813 6.12729 34.309 8.0458 33.1468 9.23801C32.5795 9.82727 31.7771 10.1562 30.9469 10.1287H27.2114Z" fill="#3C4043"/>
<path fill-rule="evenodd" clip-rule="evenodd" d="M45.3465 8.36103C44.392 7.4977 43.0917 7.05919 41.4455 7.05919C39.3291 7.05919 37.7382 7.82659 36.6869 9.34768L38.6512 10.5673C39.3705 9.52583 40.3527 9.00509 41.5977 9.00509C42.3862 9.00509 43.147 9.29287 43.7419 9.81361C44.3229 10.3069 44.6549 11.0195 44.6549 11.7732V12.2803C43.7972 11.8143 42.7182 11.5677 41.3902 11.5677C39.8409 11.5677 38.5959 11.924 37.6691 12.6503C36.7422 13.3765 36.2719 14.3358 36.2719 15.5554C36.2442 16.6654 36.7284 17.7206 37.5861 18.4332C38.4576 19.2006 39.5642 19.5843 40.8645 19.5843C42.4 19.5843 43.6174 18.9128 44.5442 17.5698H44.641V19.2006H46.7713V11.9514C46.7713 10.4303 46.301 9.22435 45.3465 8.36103ZM39.3018 17.0355C38.8452 16.7066 38.5685 16.1721 38.5685 15.5966C38.5685 14.9525 38.8729 14.4181 39.4678 13.9933C40.0766 13.5684 40.8375 13.3492 41.7368 13.3492C42.982 13.3355 43.9505 13.6096 44.6423 14.1577C44.6423 15.0895 44.2687 15.8981 43.5354 16.5832C42.8713 17.241 41.972 17.611 41.0312 17.611C40.4086 17.6247 39.7999 17.4192 39.3018 17.0355Z" fill="#3C4043"/>
<path d="M51.5577 24.3668L59 7.44287H56.5792L53.1347 15.8843H53.0932L49.5657 7.44287H47.1449L52.028 18.4469L49.2614 24.3668H51.5577Z" fill="#3C4043"/>
<path d="M19.5221 10.7319C19.5221 10.0604 19.4668 9.38896 19.3561 8.73119H9.96333V12.5271H15.3445C15.1231 13.7467 14.4038 14.843 13.3525 15.5282V17.9948H16.5618C18.4431 16.2819 19.5221 13.7467 19.5221 10.7319Z" fill="#4285F4"/>
<path d="M9.96371 20.3793C12.6474 20.3793 14.9156 19.5022 16.5618 17.9948L13.3525 15.5282C12.4533 16.1311 11.3055 16.4738 9.96371 16.4738C7.36306 16.4738 5.16357 14.7335 4.37507 12.4038H1.06892V14.9527C2.75658 18.2827 6.20106 20.3793 9.96371 20.3793Z" fill="#34A853"/>
<path d="M4.37507 12.4038C3.96001 11.1842 3.9604 9.85491 4.37547 8.62159V6.08643H1.06879C-0.356263 8.86826 -0.356263 12.1571 1.06879 14.9389L4.37507 12.4038Z" fill="#FBBC04"/>
<path d="M9.96371 4.55163C11.3885 4.52422 12.758 5.05866 13.7817 6.03162L16.6313 3.20868C14.8192 1.53684 12.4399 0.618697 9.96371 0.646104C6.20106 0.646104 2.75645 2.75645 1.06879 6.08643L4.37507 8.6353C5.16357 6.29199 7.36306 4.55163 9.96371 4.55163Z" fill="#EA4335"/>
</svg>
