<svg width="102" height="32" viewBox="0 0 102 32" fill="none" xmlns="http://www.w3.org/2000/svg">
<path d="M8.07214 30.5773L8.05525 25.7519L5.67413 29.7477H5.06618L2.68505 25.8196V30.5773H1.40161V23.2969H2.51618L5.40393 28.1223L8.24102 23.2969H9.35559L9.37247 30.5773H8.07214Z" fill="#221E1F"/>
<path d="M22.2407 28.8845H18.6099L17.9006 30.5607H16.5159L19.7751 23.2803H21.1092L24.3854 30.5607H22.9669L22.2407 28.8845ZM21.7847 27.8348L20.4169 24.6517L19.0659 27.8348H21.7847Z" fill="#221E1F"/>
<path d="M32.7953 30.2052C32.2043 29.8835 31.7483 29.4433 31.4106 28.8676C31.0728 28.2919 30.9039 27.6655 30.9039 26.9374C30.9039 26.2263 31.0728 25.5829 31.4106 25.0073C31.7483 24.4316 32.2211 23.9914 32.8122 23.6697C33.4033 23.348 34.0619 23.1787 34.8049 23.1787C35.396 23.1787 35.9364 23.2803 36.4261 23.4835C36.9159 23.6866 37.338 23.9914 37.6758 24.3808L36.7976 25.2105C36.2741 24.6348 35.6324 24.3639 34.8556 24.3639C34.3659 24.3639 33.9099 24.4655 33.5215 24.6856C33.1331 24.9057 32.8122 25.2105 32.5927 25.5999C32.3731 25.9893 32.2549 26.4295 32.2549 26.9205C32.2549 27.4115 32.3731 27.8517 32.5927 28.2411C32.8122 28.6306 33.1162 28.9353 33.5215 29.1554C33.9099 29.3755 34.3659 29.4771 34.8556 29.4771C35.6155 29.4771 36.2741 29.1893 36.7976 28.6136L37.6758 29.4433C37.338 29.8327 36.9159 30.1374 36.4261 30.3406C35.9364 30.5438 35.3791 30.6454 34.788 30.6454C34.045 30.6792 33.3864 30.5269 32.7953 30.2052Z" fill="#221E1F"/>
<path d="M49.9361 30.5773L48.45 28.444C48.3824 28.444 48.298 28.4609 48.1629 28.4609H46.5248V30.5773H45.1738V23.2969H48.1629C48.7877 23.2969 49.345 23.3985 49.801 23.6016C50.2738 23.8048 50.6285 24.1096 50.8818 24.499C51.1351 24.8884 51.2533 25.3456 51.2533 25.8873C51.2533 26.4291 51.1182 26.9032 50.848 27.3096C50.5778 27.699 50.2063 28.0038 49.6997 28.19L51.3715 30.5773H49.9361ZM49.4463 24.8207C49.1424 24.5667 48.7033 24.4482 48.1122 24.4482H46.5417V27.3434H48.1122C48.7033 27.3434 49.1424 27.2249 49.4463 26.9709C49.7503 26.717 49.9023 26.3614 49.9023 25.8873C49.9023 25.4133 49.7503 25.0577 49.4463 24.8207Z" fill="#221E1F"/>
<path d="M60.3725 30.2055C59.7814 29.8838 59.3086 29.4436 58.9709 28.8679C58.6331 28.2923 58.4642 27.6489 58.4642 26.9547C58.4642 26.2436 58.6331 25.6002 58.9709 25.0415C59.3086 24.4658 59.7814 24.0256 60.3725 23.7039C60.9636 23.3822 61.6391 23.2129 62.3821 23.2129C63.1252 23.2129 63.7838 23.3822 64.3917 23.7039C64.9828 24.0256 65.4556 24.4658 65.7934 25.0415C66.1311 25.6171 66.3 26.2436 66.3 26.9716C66.3 27.6827 66.1311 28.3261 65.7934 28.9018C65.4556 29.4774 64.9828 29.9177 64.3917 30.2393C63.8007 30.561 63.1252 30.7304 62.3821 30.7304C61.6391 30.6796 60.9636 30.5272 60.3725 30.2055ZM63.6824 29.1727C64.0709 28.9526 64.3748 28.6478 64.5944 28.2584C64.8139 27.869 64.9321 27.4288 64.9321 26.9378C64.9321 26.4468 64.8139 26.0065 64.5944 25.6171C64.3748 25.2277 64.0709 24.9229 63.6824 24.7028C63.294 24.4827 62.855 24.3811 62.3821 24.3811C61.8924 24.3811 61.4702 24.4827 61.0818 24.7028C60.6934 24.9229 60.3894 25.2277 60.1699 25.6171C59.9503 26.0065 59.8321 26.4468 59.8321 26.9378C59.8321 27.4288 59.9503 27.869 60.1699 28.2584C60.3894 28.6478 60.6934 28.9526 61.0818 29.1727C61.4702 29.3928 61.9093 29.4944 62.3821 29.4944C62.855 29.4944 63.294 29.3928 63.6824 29.1727Z" fill="#221E1F"/>
<path d="M74.7606 23.7709V26.8863H78.6278V27.3604H74.7606V30.5773H74.2371V23.2969H79.0837V23.7709H74.7606Z" fill="#221E1F"/>
<path d="M87.0039 23.2969H87.5274V30.5773H87.0039V23.2969Z" fill="#221E1F"/>
<path d="M97.6769 23.7709H95.0593V23.2969H100.818V23.7709H98.2004V30.5773H97.6769V23.7709Z" fill="#221E1F"/>
<path d="M45.1231 1.98092L44.7854 1.45605H40.9857V19.2846H45.1231V1.98092Z" fill="url(#paint0_linear_105_207)"/>
<path d="M51.1013 11.4112V17.0154H49.8348L45.1232 9.59952V1.98047L51.1013 11.4112Z" fill="url(#paint1_linear_105_207)"/>
<path d="M57.0964 1.98047L51.1013 11.4112V17.0154H52.3679L57.0964 9.56565V1.98047Z" fill="url(#paint2_linear_105_207)"/>
<path d="M57.4341 1.45605L57.0963 1.98092V19.2846H61.2337V1.45605H57.4341Z" fill="url(#paint3_linear_105_207)"/>
<defs>
<linearGradient id="paint0_linear_105_207" x1="43.0544" y1="19.2846" x2="43.0544" y2="1.45605" gradientUnits="userSpaceOnUse">
<stop stop-color="#DD0247"/>
<stop offset="1" stop-color="#9F1686"/>
</linearGradient>
<linearGradient id="paint1_linear_105_207" x1="43.6831" y1="2.81403" x2="51.7022" y2="16.6675" gradientUnits="userSpaceOnUse">
<stop stop-color="#890251"/>
<stop offset="1" stop-color="#C30141"/>
</linearGradient>
<linearGradient id="paint2_linear_105_207" x1="50.5305" y1="16.685" x2="58.5538" y2="2.82412" gradientUnits="userSpaceOnUse">
<stop stop-color="#960656"/>
<stop offset="1" stop-color="#9F1686"/>
</linearGradient>
<linearGradient id="paint3_linear_105_207" x1="59.165" y1="19.2846" x2="59.165" y2="1.45605" gradientUnits="userSpaceOnUse">
<stop stop-color="#901A81"/>
<stop offset="1" stop-color="#C91347"/>
</linearGradient>
</defs>
</svg>
