<svg width="16" height="14" viewBox="0 0 16 14" fill="none" xmlns="http://www.w3.org/2000/svg">
<path d="M0 9.09051C0 3.98298 4.72775 0.871022 5.46203 0.483113C5.99386 0.194132 6.48622 0 6.82359 0C7.1174 0 7.31186 0.142541 7.31186 0.388086C7.31186 0.633455 7.06568 0.922613 6.82359 1.11657C6.14476 1.60358 4.2393 4.1335 4.2393 6.51698C4.2393 7.14653 4.58076 7.72857 4.96967 7.92643C5.41031 8.16789 7.4585 8.6074 7.4585 11.1809C7.4585 12.6895 6.23986 13.9998 4.53294 13.9998C2.29047 14 0 12.3016 0 9.09051Z" fill="#D31F68"/>
<path d="M8.5376 9.09051C8.5376 3.98298 13.2694 0.871022 13.9998 0.483113C14.5359 0.194132 15.024 0 15.3653 0C15.6589 0 15.8496 0.142541 15.8496 0.388086C15.8496 0.633455 15.6077 0.922613 15.3653 1.11657C14.6827 1.60358 12.7813 4.1335 12.7813 6.51698C12.7813 7.14653 13.1226 7.72857 13.5117 7.92642C13.9524 8.16807 16.0005 8.60739 16.0005 11.1811C16.0005 12.6897 14.7778 14 13.0709 14C10.832 14 8.5376 12.3016 8.5376 9.09051Z" fill="#D31F68"/>
</svg>
